<svg width="2438" height="444" viewBox="0 0 2438 444" fill="none" xmlns="http://www.w3.org/2000/svg">
<g clip-path="url(#clip0_640_411)">
<path d="M2398.58 340.626V223.081C2398.58 215.999 2398.58 210.226 2398.58 205.761C2398.58 201.142 2398.58 196.755 2398.58 192.598C2398.58 179.819 2396.42 168.658 2392.11 159.112C2387.8 149.567 2381.03 142.177 2371.79 136.943C2362.55 131.708 2350.47 129.091 2335.53 129.091C2322.45 129.091 2310.29 132.478 2299.05 139.252C2287.96 145.872 2279.03 154.879 2272.26 166.271C2265.64 177.51 2262.33 190.134 2262.33 204.144L2239.93 195.6C2239.93 176.355 2244.62 158.881 2254.01 143.178C2263.56 127.474 2276.18 115.004 2291.89 105.767C2307.75 96.3753 2324.99 91.6797 2343.62 91.6797C2362.55 91.6797 2379.1 95.2976 2393.27 102.534C2407.43 109.769 2418.36 120.162 2426.06 133.71C2433.91 147.104 2437.84 163.269 2437.84 182.206C2437.84 188.98 2437.84 196.37 2437.84 204.375C2437.84 212.381 2437.84 219.848 2437.84 226.776V340.626H2398.58ZM2223.07 340.626V96.8167H2262.33V340.626H2223.07Z" fill="white"/>
<path d="M2074.19 340.627V95.375L2113.45 95.3746V170.659L2100.52 166.041C2101.44 156.957 2103.75 148.028 2107.44 139.252C2111.14 130.323 2116.22 122.317 2122.69 115.235C2129.31 107.999 2137.54 102.303 2147.4 98.1462C2157.25 93.8354 2168.8 91.6801 2182.04 91.6801C2191.89 91.6801 2199.89 92.5268 2206.05 94.2203C2212.36 95.7599 2216.29 96.9915 2217.83 97.9153L2207.67 136.481C2206.13 135.404 2202.97 134.018 2198.2 132.324C2193.58 130.631 2186.96 129.784 2178.34 129.784C2165.56 129.784 2154.94 132.093 2146.47 136.712C2138.16 141.331 2131.54 147.489 2126.61 155.187C2121.84 162.731 2118.45 170.967 2116.45 179.897C2114.45 188.826 2113.45 197.679 2113.45 206.454V340.627H2074.19Z" fill="white"/>
<path d="M1915.36 345.245C1896.74 345.245 1880.42 342.32 1866.41 336.47C1852.55 330.619 1841.77 322.229 1834.08 311.298C1826.38 300.213 1822.53 286.973 1822.53 271.577C1822.53 255.566 1826.69 242.249 1835 231.626C1843.31 220.849 1855.01 212.458 1870.1 206.454C1885.19 200.45 1902.74 196.447 1922.75 194.445C1952.93 191.366 1974.41 188.364 1987.19 185.439C1999.96 182.36 2006.35 177.433 2006.35 170.659C2006.35 170.505 2006.35 170.428 2006.35 170.428C2006.35 170.274 2006.35 170.12 2006.35 169.966C2006.35 155.802 2000.58 145.256 1989.03 138.328C1977.49 131.246 1960.78 127.705 1938.92 127.705C1916.13 127.705 1898.43 131.708 1885.81 139.714C1873.18 147.566 1866.87 160.344 1866.87 178.049H1828.07C1828.07 159.728 1832.77 144.179 1842.16 131.4C1851.55 118.468 1864.56 108.615 1881.19 101.841C1897.97 95.0667 1917.29 91.6797 1939.15 91.6797C1959.17 91.6797 1977.18 94.7588 1993.19 100.917C2009.35 106.921 2022.13 115.928 2031.52 127.936C2041.07 139.791 2045.84 154.494 2045.84 172.045C2045.84 175.278 2045.84 178.511 2045.84 181.744C2045.84 184.823 2045.84 187.979 2045.84 191.212V294.44C2045.84 299.828 2046.07 305.063 2046.54 310.143C2047 315.224 2047.77 319.688 2048.84 323.537C2050.23 328.156 2051.77 331.928 2053.46 334.853C2055.16 337.624 2056.54 339.549 2057.62 340.626H2018.13C2017.36 339.857 2016.21 338.086 2014.67 335.315C2013.13 332.39 2011.66 329.003 2010.28 325.154C2009.2 322.075 2008.35 318.226 2007.74 313.607C2007.12 308.834 2006.81 303.908 2006.81 298.827L2013.28 303.215C2008.51 311.529 2001.5 318.842 1992.27 325.154C1983.18 331.466 1972.17 336.393 1959.24 339.934C1946.31 343.475 1931.68 345.245 1915.36 345.245ZM1921.6 309.912C1937.46 309.912 1951.78 307.526 1964.55 302.753C1977.33 297.827 1987.49 290.591 1995.04 281.045C2002.58 271.5 2006.35 259.646 2006.35 245.482V196.755L2015.13 211.534C2005.28 215.383 1992.96 218.539 1978.18 221.003C1963.55 223.312 1948.23 225.236 1932.22 226.776C1908.98 228.931 1891.42 233.011 1879.57 239.015C1867.87 245.02 1862.02 255.104 1862.02 269.268C1862.02 282.662 1866.87 292.823 1876.57 299.751C1886.27 306.525 1901.28 309.912 1921.6 309.912Z" fill="white"/>
<path d="M1580.75 233.704V198.602H1770.35L1763.42 210.149C1763.42 209.225 1763.42 208.378 1763.42 207.608C1763.42 206.685 1763.42 205.838 1763.42 205.068C1763.42 190.904 1760.42 177.972 1754.41 166.271C1748.56 154.417 1739.79 144.948 1728.09 137.866C1716.38 130.784 1701.91 127.243 1684.67 127.243C1667.27 127.243 1651.95 130.938 1638.71 138.328C1625.47 145.718 1615.16 156.187 1607.77 169.735C1600.38 183.129 1596.68 199.141 1596.68 217.77C1596.68 236.706 1600.23 253.025 1607.31 266.727C1614.54 280.43 1624.78 290.976 1638.02 298.365C1651.26 305.755 1666.97 309.45 1685.13 309.45C1698.06 309.45 1709.3 308.142 1718.85 305.524C1728.39 302.753 1736.25 299.135 1742.4 294.67C1748.72 290.052 1753.49 285.048 1756.72 279.66C1759.95 274.271 1761.88 268.883 1762.49 263.494H1801.75C1800.98 273.348 1797.9 283.124 1792.52 292.823C1787.13 302.522 1779.51 311.375 1769.65 319.38C1759.8 327.232 1747.71 333.544 1733.4 338.317C1719.08 343.09 1702.61 345.476 1683.98 345.476C1659.34 345.476 1637.64 340.087 1618.85 329.311C1600.07 318.534 1585.29 303.6 1574.51 284.509C1563.89 265.419 1558.58 243.48 1558.58 218.693C1558.58 193.598 1563.97 171.583 1574.75 152.646C1585.52 133.556 1600.38 118.622 1619.32 107.845C1638.25 97.0681 1659.88 91.6797 1684.21 91.6797C1708.99 91.6797 1730.47 97.0681 1748.64 107.845C1766.81 118.622 1780.82 133.402 1790.67 152.184C1800.52 170.813 1805.45 192.059 1805.45 215.922C1805.45 218.385 1805.37 221.618 1805.22 225.621C1805.06 229.624 1804.83 232.318 1804.52 233.704H1580.75Z" fill="white"/>
<path d="M1375.8 340.627V0H1415.29V328.388L1397.51 305.987H1549.7V340.627H1375.8Z" fill="white"/>
<path d="M1182.51 444.085C1176.35 444.085 1170.73 443.7 1165.65 442.93C1160.57 442.315 1157.41 441.699 1156.18 441.083V406.905C1158.18 407.828 1161.49 408.598 1166.11 409.214C1170.73 409.83 1175.35 410.138 1179.97 410.138C1189.82 410.138 1198.13 408.059 1204.91 403.903C1211.68 399.9 1217.38 394.357 1222 387.275C1226.61 380.347 1230.39 372.496 1233.31 363.72L1240.7 342.012L1156.18 95.375H1197.29L1265.18 306.679H1259.64L1326.15 95.375H1366.56L1276.73 361.642C1271.65 376.575 1265.49 390.277 1258.25 402.748C1251.17 415.218 1241.63 425.225 1229.62 432.769C1217.76 440.313 1202.06 444.085 1182.51 444.085Z" fill="white"/>
<path d="M941.063 233.704V198.602H1130.66L1123.73 210.149C1123.73 209.225 1123.73 208.378 1123.73 207.608C1123.73 206.685 1123.73 205.838 1123.73 205.068C1123.73 190.904 1120.73 177.972 1114.73 166.271C1108.88 154.417 1100.1 144.948 1088.4 137.866C1076.7 130.784 1062.23 127.243 1044.98 127.243C1027.59 127.243 1012.27 130.938 999.028 138.328C985.787 145.718 975.472 156.187 968.082 169.735C960.693 183.129 956.998 199.141 956.998 217.77C956.998 236.706 960.539 253.025 967.621 266.727C974.857 280.43 985.095 290.976 998.335 298.365C1011.57 305.755 1027.28 309.45 1045.45 309.45C1058.38 309.45 1069.62 308.142 1079.16 305.524C1088.71 302.753 1096.56 299.135 1102.72 294.67C1109.03 290.052 1113.8 285.048 1117.03 279.66C1120.27 274.271 1122.19 268.883 1122.81 263.494H1162.07C1161.3 273.348 1158.22 283.124 1152.83 292.823C1147.44 302.522 1139.82 311.375 1129.97 319.38C1120.11 327.232 1108.03 333.544 1093.71 338.317C1079.39 343.09 1062.92 345.476 1044.29 345.476C1019.66 345.476 997.95 340.087 979.167 329.311C960.385 318.534 945.605 303.6 934.828 284.509C924.205 265.419 918.894 243.48 918.894 218.693C918.894 193.598 924.282 171.583 935.059 152.646C945.836 133.556 960.693 118.622 979.629 107.845C998.566 97.0681 1020.2 91.6797 1044.52 91.6797C1069.31 91.6797 1090.79 97.0681 1108.95 107.845C1127.12 118.622 1141.13 133.402 1150.98 152.184C1160.84 170.813 1165.76 192.059 1165.76 215.922C1165.76 218.385 1165.68 221.618 1165.53 225.621C1165.38 229.624 1165.15 232.318 1164.84 233.704H941.063Z" fill="white"/>
<path d="M812.749 340.627L744.162 95.375H779.033L843.925 323.307H836.766L879.72 95.375H920.595L867.711 340.627H812.749ZM646.938 340.627L593.593 95.375H634.468L677.884 323.307H670.725L734.924 95.375H769.795L702.132 340.627H646.938Z" fill="white"/>
<path d="M373.128 233.704V198.602H562.724L555.796 210.149C555.796 209.225 555.796 208.378 555.796 207.608C555.796 206.685 555.796 205.838 555.796 205.068C555.796 190.904 552.794 177.972 546.79 166.271C540.94 154.417 532.164 144.948 520.463 137.866C508.763 130.784 494.291 127.243 477.048 127.243C459.651 127.243 444.332 130.938 431.092 138.328C417.852 145.718 407.537 156.187 400.147 169.735C392.757 183.129 389.062 199.141 389.062 217.77C389.062 236.706 392.603 253.025 399.685 266.727C406.921 280.43 417.159 290.976 430.399 298.365C443.639 305.755 459.343 309.45 477.51 309.45C490.442 309.45 501.681 308.142 511.226 305.524C520.771 302.753 528.623 299.135 534.781 294.67C541.094 290.052 545.866 285.048 549.099 279.66C552.332 274.271 554.257 268.883 554.873 263.494H594.131C593.362 273.348 590.282 283.124 584.894 292.823C579.505 302.522 571.885 311.375 562.031 319.38C552.178 327.232 540.093 333.544 525.775 338.317C511.457 343.09 494.984 345.476 476.355 345.476C451.722 345.476 430.014 340.087 411.232 329.311C392.449 318.534 377.669 303.6 366.892 284.509C356.269 265.419 350.958 243.48 350.958 218.693C350.958 193.598 356.346 171.583 367.123 152.646C377.9 133.556 392.757 118.622 411.694 107.845C430.63 97.0681 452.261 91.6797 476.586 91.6797C501.373 91.6797 522.85 97.0681 541.017 107.845C559.183 118.622 573.193 133.402 583.046 152.184C592.9 170.813 597.826 192.059 597.826 215.922C597.826 218.385 597.749 221.618 597.595 225.621C597.441 229.624 597.21 232.318 596.902 233.704H373.128Z" fill="white"/>
<path d="M18.9131 225.903V72.6111C18.9131 45.8761 40.5861 24.2031 67.3211 24.2031H159.989" stroke="white" stroke-width="40.34" stroke-linecap="round" stroke-linejoin="round"/>
<path d="M155.959 24.2031C242.43 24.2031 317.189 39.2646 317.189 158.413" stroke="white" stroke-width="40.34" stroke-linecap="round" stroke-linejoin="round"/>
<path d="M317.189 154.465C317.189 290.202 282.379 316.306 123.036 316.306" stroke="white" stroke-width="40.34" stroke-linecap="round" stroke-linejoin="round"/>
<circle cx="38.323" cy="300.534" r="38.323" fill="#E21AC2"/>
</g>
<defs>
<clipPath id="clip0_640_411">
<rect width="2438" height="444" fill="white"/>
</clipPath>
</defs>
</svg>
